<svg width="53" height="auto" viewBox="0 0 57 58" fill="none" xmlns="http://www.w3.org/2000/svg">
<path d="M6.51364 16.204C5.35493 14.4834 5.10534 12.6386 5.961 10.7406C7.22667 7.93794 10.2928 7.19293 12.7707 9.01998C12.9846 9.17963 13.3768 9.23284 13.6263 9.14415C14.3037 8.91355 14.9277 8.59426 15.6585 8.27497C14.6781 6.87364 14.375 5.36587 14.7316 3.73394C14.9811 2.59868 15.5694 1.65854 16.4964 0.931267C18.0829 -0.310422 20.2043 -0.310422 21.773 0.931267C23.8943 2.59868 24.1973 5.02884 22.6643 8.34593C23.3773 8.64748 24.0547 8.96677 24.7856 9.21511C24.9639 9.28606 25.2847 9.14415 25.463 9.00225C27.3169 7.65413 29.1174 7.65413 30.9535 9.00225C31.1853 9.16189 31.5953 9.23284 31.8627 9.14415C32.5401 8.93129 33.164 8.59426 33.8949 8.29271C32.9144 6.92685 32.5935 5.43682 32.9322 3.84037C33.1818 2.68737 33.7701 1.69402 34.7149 0.966744C36.3192 -0.274945 38.4049 -0.274945 39.9915 0.966744C42.1128 2.61642 42.4159 5.09979 40.865 8.36366C41.5424 8.64748 42.2019 8.96677 42.8972 9.21511C43.0754 9.28606 43.3607 9.21511 43.5211 9.09094C45.7137 7.67186 47.4429 7.65413 49.1364 9.09094C50.7942 10.4923 51.3647 13.1176 50.4377 15.1752C50.2594 15.5477 50.0455 15.9025 49.7959 16.3459C50.616 16.7007 51.4716 17.0377 52.2738 17.428C52.969 17.765 53.6643 18.1021 54.2882 18.5455C55.6252 19.4502 56.3382 20.7628 56.3382 22.377C56.3561 26.9003 56.3561 31.4236 56.3382 35.9469C56.3382 37.1886 55.6965 38.0578 54.5199 38.6431C56.4986 42.1199 56.9443 45.774 55.5895 49.5345C54.5734 52.3549 52.7195 54.5545 50.1347 56.08C45.072 59.0955 38.0128 58.4747 33.3423 52.692C33.2531 53.5611 33.1818 54.2884 33.1105 55.0867C29.8661 55.0867 26.6039 55.0867 23.2704 55.0867C23.1278 53.6144 22.9852 52.1243 22.8604 50.6343C22.7712 49.6587 22.7356 48.6831 22.6286 47.7252C22.6108 47.5301 22.3078 47.1931 22.1295 47.1931C19.9903 47.1576 17.869 47.1753 15.6407 47.1753C15.409 49.8538 15.195 52.4614 14.9633 55.1576C14.5889 55.1576 14.2681 55.1576 13.9472 55.1576C11.3624 55.1576 8.77757 55.1221 6.19275 55.1753C5.33709 55.1931 5.05186 54.998 4.98056 54.0756C4.6062 48.9846 4.16055 43.8937 3.71489 38.7141C3.35836 38.7141 3.01966 38.7141 2.66313 38.7141C1.20137 38.6786 0.0426759 37.5788 0.0248496 36.1243C-0.0108031 31.4591 -0.0108075 26.7761 0.0426715 22.1109C0.0604979 20.408 0.969649 19.1309 2.41358 18.2972C3.7149 17.5167 5.10536 16.9136 6.51364 16.204ZM16.3894 22.5721C16.3894 24.0622 16.3894 25.4458 16.3894 26.8471C16.3894 29.9158 16.3716 32.9846 16.4251 36.0533C16.4251 36.3371 16.9064 36.887 17.0668 36.8516C17.459 36.7629 17.8334 36.4436 18.1186 36.142C18.2434 36.0179 18.1364 35.6808 18.1364 35.4502C18.1364 31.193 18.1007 26.9535 18.1542 22.6963C18.172 21.2772 17.6194 20.2839 16.4072 19.6808C14.9811 18.9712 13.5372 18.173 12.022 17.8005C10.7206 17.4812 9.22322 17.4457 7.9219 17.7828C6.37101 18.173 4.92708 19.0245 3.46532 19.7517C2.27095 20.3548 1.77182 21.4014 1.77182 22.7318C1.78964 26.989 1.77182 31.2462 1.77182 35.5034C1.77182 36.4968 2.11052 36.958 2.82357 36.9048C3.75054 36.8516 3.57229 36.142 3.57229 35.5921C3.59012 31.601 3.57229 27.6098 3.57229 23.6187C3.57229 23.2817 3.57229 22.9269 3.57229 22.5899C4.24969 22.5899 4.80229 22.5899 5.51535 22.5899C5.19447 32.8604 5.53318 43.0423 6.79885 53.2064C7.54756 53.2064 8.2606 53.2064 9.08061 53.2064C9.08061 47.4946 9.08061 41.8361 9.08061 36.142C9.70453 36.142 10.2572 36.142 10.8811 36.142C10.8811 41.8715 10.8811 47.5301 10.8811 53.2241C11.7011 53.2241 12.432 53.2241 13.1807 53.2241C14.3037 43.0068 14.9277 32.8072 14.482 22.5721C15.2485 22.5721 15.7833 22.5721 16.3894 22.5721ZM34.5366 36.1775C35.8201 35.4502 36.4084 34.5988 36.3371 33.091C36.1945 29.6143 36.2479 26.1198 36.3192 22.6431C36.3371 21.3482 35.8914 20.3548 34.7684 19.7872C33.271 19.0245 31.7557 18.1907 30.1513 17.765C28.8857 17.428 27.3883 17.4103 26.1404 17.7473C24.5004 18.1907 22.9851 19.0777 21.4699 19.8582C20.4895 20.3726 19.9903 21.2595 19.9903 22.4125C19.9903 26.8471 19.9903 31.2817 19.9903 35.7163C19.9903 36.4081 20.2399 36.887 20.9886 36.9048C21.7551 36.9225 21.7908 36.3904 21.7908 35.805C21.7908 31.7606 21.7908 27.7163 21.7908 23.6542C21.7908 23.3171 21.7908 22.9624 21.7908 22.5899C22.4682 22.5899 23.003 22.5899 23.6804 22.5899C23.2525 32.8782 23.823 43.0423 24.9817 53.2064C25.7661 53.2064 26.4791 53.2064 27.2991 53.2064C27.2991 47.4769 27.2991 41.8183 27.2991 36.142C27.9409 36.142 28.4757 36.142 29.0996 36.142C29.0996 41.8715 29.0996 47.5301 29.0996 53.2064C29.9018 53.2064 30.6327 53.2064 31.3992 53.2064C31.524 51.4325 31.8092 49.7651 31.2922 48.009C30.5435 45.4902 30.7396 42.8649 31.8805 40.4879C32.5935 38.9979 32.754 37.5256 32.6827 35.9469C32.6648 35.3793 32.6827 34.8294 32.6827 34.2617C32.6827 31.601 32.6827 28.958 32.6827 26.2972C32.6827 25.0555 32.6827 23.8316 32.6827 22.5899C32.9322 22.5544 33.0749 22.5367 33.2175 22.5367C34.5544 22.5012 34.5544 22.5012 34.5366 23.7783C34.5188 25.0378 34.4475 26.3149 34.4475 27.5744C34.4475 30.0577 34.501 32.5234 34.5188 35.0068C34.5544 35.3793 34.5366 35.7518 34.5366 36.1775ZM43.6459 34.3682C37.5493 34.3859 32.754 39.193 32.7718 45.2418C32.7896 51.1665 37.674 55.9913 43.628 56.009C49.582 56.009 54.5199 51.1132 54.5377 45.1886C54.5556 39.2285 49.6355 34.3504 43.6459 34.3682ZM50.8477 34.4924C50.8477 30.5722 50.8477 26.581 50.8477 22.5899C51.5073 22.5899 52.0599 22.5899 52.666 22.5899C52.666 22.9979 52.666 23.3526 52.666 23.7074C52.666 27.6631 52.666 31.6365 52.666 35.5921C52.666 36.2307 52.7908 36.8516 53.5395 36.8693C54.3595 36.887 54.5021 36.2485 54.5021 35.5567C54.5021 31.2994 54.4843 27.0422 54.5021 22.785C54.5021 21.295 53.9138 20.1952 52.5769 19.5743C51.1864 18.918 49.7603 18.3327 48.3342 17.7295C48.1381 17.6586 47.8885 17.7295 47.6568 17.7295C46.7298 17.7295 45.785 17.7295 44.8581 17.7118C44.662 17.7118 44.4302 17.5876 44.2698 17.6586C42.6298 18.4036 40.9719 19.1309 39.3854 19.9823C38.4762 20.479 38.1019 21.3837 38.1019 22.448C38.1019 25.1619 38.0662 27.8937 38.0484 30.6076C38.0484 31.6187 38.0484 32.6298 38.0484 33.7296C38.4227 33.5877 38.6188 33.4813 38.8149 33.4458C39.7954 33.3039 39.938 32.7008 39.9202 31.8138C39.8667 29.0289 39.9023 26.2617 39.9023 23.4768C39.9023 23.1575 39.9023 22.8559 39.9023 22.5721C40.5797 22.5721 41.1145 22.5721 41.7385 22.5721C41.7385 25.9424 41.7385 29.2418 41.7385 32.417C43.3428 32.5589 44.9115 32.5234 46.3733 32.8604C47.9064 33.2152 49.3325 33.907 50.8477 34.4924ZM42.1128 10.8825C41.2037 10.4923 40.3658 9.94238 39.4567 9.81821C38.0662 9.62309 36.6223 9.58761 35.2497 9.765C34.2692 9.88917 33.3422 10.51 32.344 10.9357C32.9857 12.8692 32.8075 14.6431 31.5953 16.3105C33.574 17.2506 35.731 17.7828 37.2284 19.5211C38.7615 17.836 40.8471 17.1974 42.808 16.2927C41.5958 14.0754 41.5067 13.3836 42.1128 10.8825ZM19.1168 19.5211C20.5964 17.765 22.7534 17.2151 24.6965 16.2395C23.5021 14.5544 23.3417 12.7983 23.9834 10.918C23.4308 10.6874 22.9495 10.4923 22.4682 10.2794C21.6125 9.9069 20.7925 9.55214 19.7764 9.88917C19.1881 10.0843 18.4394 9.81821 17.762 9.765C17.5303 9.74726 17.2807 9.62309 17.1025 9.69404C16.1398 10.0666 15.1951 10.4745 14.2681 10.8648C14.7137 13.898 14.7137 13.969 13.5194 16.3105C15.4446 17.2151 17.5303 17.8005 19.1168 19.5211ZM49.0294 13.0111C49.0294 11.3082 47.8172 9.85369 46.3376 9.81821C44.8402 9.78274 43.5924 11.2373 43.5567 13.0289C43.5389 14.6963 44.8224 16.1508 46.302 16.1508C47.8172 16.1331 49.0294 14.7318 49.0294 13.0111ZM34.5901 4.95789C34.5723 6.73173 35.8023 8.16854 37.3353 8.1508C38.8149 8.13306 40.045 6.69625 40.045 4.99336C40.045 3.29048 38.8149 1.85366 37.3353 1.81819C35.8736 1.81819 34.6079 3.255 34.5901 4.95789ZM30.8644 13.2772C30.8822 11.3437 29.8483 10.0133 28.4044 9.83595C27.1922 9.6763 25.9087 10.6342 25.5878 12.0355C25.463 12.5854 25.4452 13.224 25.5343 13.7916C25.7304 15.051 26.8356 16.0621 27.9587 16.1508C29.1531 16.2395 30.2227 15.4768 30.6683 14.1641C30.7931 13.7916 30.8466 13.4191 30.8644 13.2772ZM21.8264 5.02884C21.8264 2.81154 20.0082 1.30377 18.2077 2.03105C17.1381 2.47451 16.4072 3.68072 16.4072 5.02884C16.4072 6.37696 17.1381 7.5477 18.2612 7.99116C20.0082 8.68295 21.8264 7.17519 21.8264 5.02884ZM12.7172 13.3482C12.6994 11.326 11.7011 10.0311 10.2572 9.85369C8.97367 9.69404 7.70798 10.6874 7.38711 12.2129C7.10189 13.5078 7.40494 14.6785 8.45669 15.5655C9.22322 16.2218 10.1145 16.3814 11.0237 15.9202C12.1824 15.3349 12.6994 14.3238 12.7172 13.3482ZM18.1542 45.2241C18.1542 43.0068 18.1542 40.8604 18.1542 38.6786C17.5481 38.6786 16.9777 38.6786 16.3181 38.6786C16.1399 40.8604 15.9794 43.0068 15.8011 45.2241C16.6568 45.2241 17.352 45.2241 18.1542 45.2241ZM22.3969 45.2418C22.2186 42.9891 22.0404 40.8427 21.8621 38.6964C21.1847 38.6964 20.6321 38.6964 20.0795 38.6964C20.0795 40.8959 20.0795 43.06 20.0795 45.2418C20.846 45.2418 21.5412 45.2418 22.3969 45.2418Z" fill="#FD8C05"/>
<path d="M42.2911 46.3239C44.5907 44.0179 46.8012 41.8006 48.976 39.6188C50.2416 40.8959 51.4895 42.1376 52.8799 43.539C52.4165 43.9647 51.846 44.4436 51.3112 44.9758C48.8334 47.4237 46.3555 49.9071 43.8776 52.355C42.7189 53.5079 41.8098 53.508 40.6689 52.3904C38.5654 50.315 36.4619 48.2396 34.4297 46.2175C35.7667 44.8871 37.0323 43.6277 38.3693 42.2795C39.6171 43.5567 40.9006 44.8871 42.2911 46.3239ZM42.3089 51.2374C44.965 48.6122 47.6033 45.9691 50.1882 43.3971C49.8316 43.0068 49.4573 42.5811 49.0116 42.0844C46.7477 44.3372 44.5194 46.5722 42.1307 48.9492C40.7759 47.5656 39.4567 46.2175 38.1732 44.9048C37.7454 45.2951 37.3532 45.6498 37.0145 45.9691C38.7971 47.743 40.5441 49.4813 42.3089 51.2374Z" fill="#FD8C05"/>
</svg>
