<svg width="53" height="auto" viewBox="0 0 53 65" fill="none" xmlns="http://www.w3.org/2000/svg">
<path d="M26.0465 40.4587C17.8609 40.4587 9.67533 40.4587 1.50614 40.4587C0.245567 40.4587 0 40.2143 0 38.9274C0 38.1129 0 37.2984 0 36.4838C0.0163711 35.4575 0.58936 34.7082 1.62074 34.5616C2.22647 34.4638 2.30833 34.2195 2.30833 33.6819C2.29196 28.2572 2.29196 22.8325 2.30833 17.3915C2.30833 16.8865 2.2101 16.6422 1.66985 16.5118C0.818556 16.2838 0.360165 15.5996 0.327422 14.7036C0.311051 14.0846 0.311051 13.4492 0.327422 12.8302C0.343794 11.4455 1.12961 10.6636 2.50478 10.6636C6.79401 10.6636 11.0669 10.631 15.3561 10.6799C16.191 10.6962 16.4366 10.4844 16.3547 9.66987C16.2729 8.88793 16.322 8.0897 16.3547 7.30777C16.3711 6.90051 16.2238 6.75389 15.8472 6.63986C14.7831 6.29776 14.3411 5.69502 14.3084 4.60356C14.292 3.95195 14.2756 3.30033 14.3247 2.64872C14.423 1.50839 15.2251 0.742742 16.3711 0.726451C22.674 0.710161 28.9769 0.710161 35.2798 0.726451C36.5731 0.726451 37.3589 1.52468 37.3753 2.81162C37.3916 3.26775 37.3753 3.74017 37.3753 4.1963C37.3753 5.76018 37.1461 6.13486 35.7054 6.68873C35.378 6.81905 35.3944 6.98196 35.3944 7.22631C35.3944 8.15487 35.4271 9.06713 35.378 9.99568C35.3452 10.5333 35.5253 10.6799 36.0492 10.6636C40.3384 10.6473 44.6113 10.6473 48.9005 10.6473C50.7177 10.6473 51.4217 11.3478 51.4217 13.1397C51.4217 13.5959 51.4217 14.0683 51.4217 14.5244C51.4053 15.567 50.9633 16.2512 49.9647 16.5281C49.4735 16.6584 49.4244 16.9028 49.4244 17.3263C49.4408 22.8162 49.4408 28.2898 49.4244 33.7796C49.4244 34.2521 49.4735 34.4801 50.0629 34.4964C51.4053 34.5453 52.0765 35.3272 52.0929 36.6467C52.0929 37.4938 52.0929 38.3246 52.0929 39.1718C52.0929 40.1818 51.7982 40.4587 50.7668 40.4587C42.5158 40.475 34.2811 40.4587 26.0465 40.4587ZM18.352 20.6659C18.352 20.8777 18.352 21.1057 18.352 21.3175C18.352 25.439 18.3684 29.5604 18.3357 33.6982C18.3357 34.3498 18.5157 34.5779 19.1378 34.4801C19.2688 34.4638 19.4161 34.4638 19.5471 34.4801C20.2183 34.5942 20.3493 34.2846 20.3329 33.6819C20.3002 30.9614 20.3166 28.2572 20.3166 25.5367C20.3166 23.5167 21.2825 22.5719 23.3288 22.5719C24.9987 22.5719 26.6522 22.5719 28.322 22.5719C30.4503 22.5719 31.3834 23.5167 31.3834 25.667C31.3834 28.192 31.3834 30.717 31.3834 33.2421C31.3834 34.5127 31.3834 34.4964 32.6768 34.4964C33.1843 34.4964 33.3807 34.3987 33.3807 33.8285C33.3643 25.0317 33.3643 16.2349 33.3807 7.45438C33.3807 6.90051 33.2497 6.72131 32.6604 6.72131C28.1256 6.75389 23.6072 6.75389 19.0724 6.72131C18.4503 6.72131 18.3193 6.88422 18.3193 7.48696C18.3684 11.8854 18.352 16.2838 18.352 20.6659ZM16.3547 25.5856C16.3547 22.8162 16.3384 20.0631 16.3711 17.2938C16.3711 16.8051 16.2565 16.6422 15.7326 16.6422C12.131 16.6584 8.54572 16.6584 4.94408 16.6422C4.43657 16.6422 4.3056 16.7888 4.3056 17.2938C4.32198 22.7999 4.32198 28.3061 4.3056 33.7959C4.3056 34.3009 4.4202 34.4964 4.97682 34.4964C8.54572 34.4638 12.1146 34.4638 15.6835 34.4964C16.2402 34.4964 16.3547 34.3335 16.3547 33.8122C16.3384 31.0591 16.3384 28.3224 16.3547 25.5856ZM35.378 25.553C35.378 28.2898 35.3944 31.0266 35.3616 33.7796C35.3616 34.3498 35.5253 34.4964 36.0819 34.4964C39.6017 34.4638 43.1215 34.4801 46.6413 34.4964C47.1816 34.4964 47.3944 34.415 47.378 33.7959C47.3453 28.3224 47.3453 22.8325 47.378 17.3589C47.378 16.7725 47.2143 16.6422 46.6577 16.6584C43.1379 16.691 39.6181 16.691 36.0983 16.6584C35.4435 16.6584 35.3616 16.8702 35.3616 17.4404C35.3944 20.1283 35.378 22.8488 35.378 25.553ZM26.0301 36.5164C18.2865 36.5164 10.543 36.5327 2.81583 36.4838C1.76808 36.4838 2.04639 37.0377 1.99728 37.5916C1.93179 38.2106 2.04639 38.4876 2.79946 38.4876C18.2865 38.455 33.7572 38.455 49.2443 38.4876C50.423 38.4876 50.0138 37.8034 50.0956 37.2495C50.2102 36.5327 49.8173 36.5001 49.2607 36.5001C41.5172 36.5164 33.7736 36.5164 26.0301 36.5164ZM29.337 29.707C29.337 28.2898 29.3043 26.8888 29.3534 25.4715C29.3698 24.7873 29.1079 24.5593 28.453 24.5756C26.734 24.6081 25.0151 24.6081 23.2961 24.5756C22.6413 24.5593 22.3629 24.7711 22.3629 25.4552C22.3793 28.2735 22.3793 31.0917 22.3629 33.9263C22.3629 34.3498 22.4612 34.4964 22.9032 34.4801C24.8677 34.4638 26.8323 34.4638 28.7968 34.4801C29.3043 34.4801 29.3534 34.2683 29.3534 33.8611C29.3207 32.4764 29.337 31.0917 29.337 29.707ZM25.7845 4.7013C28.7477 4.7013 31.7272 4.68501 34.6904 4.71759C35.247 4.71759 35.4271 4.57098 35.3616 4.0334C35.3289 3.8542 35.3289 3.64243 35.3616 3.46324C35.4762 2.82791 35.1979 2.69759 34.6085 2.69759C32.071 2.73017 29.5335 2.71388 27.0123 2.71388C23.7381 2.71388 20.4803 2.73017 17.206 2.69759C16.5021 2.6813 16.2729 2.90936 16.3711 3.56098C16.3875 3.6913 16.3875 3.83791 16.3711 3.96824C16.2402 4.60356 16.5512 4.71759 17.1406 4.71759C20.0219 4.68501 22.9032 4.7013 25.7845 4.7013ZM9.33154 12.651C7.43249 12.651 5.51707 12.651 3.61802 12.651C2.29196 12.651 2.29196 12.651 2.30833 14.0031C2.30833 14.4104 2.37381 14.6384 2.86495 14.6384C7.17055 14.6221 11.4762 14.6221 15.7654 14.6384C16.2402 14.6384 16.4039 14.4755 16.3384 14.0194C16.3056 13.8076 16.3056 13.5796 16.3384 13.3678C16.4202 12.7976 16.191 12.6347 15.618 12.6347C13.5389 12.6836 11.427 12.651 9.33154 12.651ZM42.3193 12.651C40.3384 12.651 38.3412 12.6999 36.3603 12.6184C35.4762 12.5858 35.247 12.8791 35.378 13.661C35.378 13.6936 35.378 13.7099 35.378 13.7425C35.247 14.4267 35.4762 14.6547 36.2293 14.6384C39.438 14.5896 42.6468 14.6221 45.8719 14.6221C46.6577 14.6221 47.4435 14.6221 48.2457 14.6221C49.6209 14.6059 49.3589 14.7688 49.4244 13.4655C49.4571 12.8465 49.2934 12.6184 48.6222 12.6347C46.5103 12.6836 44.4148 12.651 42.3193 12.651Z" fill="#FD8C05"/>
<path d="M26.1283 57.5473C23.7545 57.5473 21.3807 57.5473 19.0069 57.5473C18.5649 57.5473 17.206 58.4759 17.0587 58.8506C16.9769 59.0623 17.1242 59.2089 17.1733 59.3881C17.5662 60.6425 17.2879 61.734 16.3711 62.6788C15.8636 63.2001 15.3561 63.7377 14.8159 64.2427C14.3575 64.6825 13.8172 64.7314 13.3752 64.259C12.9332 63.8028 12.9659 63.2815 13.4079 62.8091C13.8336 62.353 14.292 61.9131 14.7176 61.4733C15.5198 60.6425 15.5198 60.2352 14.734 59.4207C12.0983 56.6676 9.46251 53.9309 6.82676 51.1778C6.31925 50.6565 5.82812 50.1026 5.30425 49.5976C4.82948 49.1252 4.33835 49.0437 3.81447 49.565C3.51979 49.842 3.20874 50.1189 2.86495 50.3307C2.42293 50.5913 1.96454 50.575 1.60437 50.1841C1.22784 49.7605 1.14598 49.2718 1.50615 48.8971C2.11188 48.2455 2.76672 47.6102 3.61802 47.2844C4.38746 46.9912 5.14053 47.1378 5.82812 47.5125C6.22103 47.7242 6.45022 47.6428 6.7449 47.3658C8.28379 45.9812 9.85542 44.6453 11.3943 43.2607C12.2129 42.5276 13.1296 42.1855 14.2101 42.2018C16.6658 42.2181 19.1215 42.2181 21.5771 42.2018C22.6249 42.2018 23.6399 42.381 24.5894 42.8045C25.8336 43.3584 27.1106 43.5865 28.4858 43.5213C29.6481 43.4724 30.8268 43.505 32.0055 43.505C33.348 43.505 34.3139 44.0752 34.7723 45.3621C34.8869 45.7042 35.0669 45.8671 35.4271 45.802C35.4598 45.802 35.4762 45.802 35.509 45.802C37.0315 46.0626 38.1283 45.6228 38.9142 44.1892C39.7327 42.6905 41.0751 41.99 42.876 42.1855C43.7927 42.2832 44.7259 42.1855 45.659 42.2018C47.1488 42.2181 47.8037 43.1792 47.1979 44.5313C46.3957 46.3721 45.5608 48.1804 44.7259 50.0049C44.3821 50.7705 43.8091 51.357 43.1215 51.8131C40.6495 53.4422 38.1775 55.0712 35.7054 56.7165C34.8377 57.2867 33.9046 57.5636 32.8568 57.5636C30.5976 57.531 28.3712 57.531 26.1283 57.5473C26.1283 57.531 26.1283 57.531 26.1283 57.5473ZM45.0861 44.2055C44.0056 44.2055 43.056 44.2218 42.1065 44.1892C41.6481 44.1729 41.3207 44.3195 41.0588 44.6616C40.4367 45.4924 39.7818 46.2907 39.1925 47.1215C38.865 47.5939 38.4558 47.7894 37.8828 47.7731C37.0315 47.7405 36.1965 47.7731 35.3452 47.7568C35.0178 47.7568 34.8869 47.822 34.8541 48.1966C34.7231 50.2655 33.7736 51.1289 31.6781 51.1289C28.6822 51.1289 25.6863 51.1289 22.674 51.1289C22.4284 51.1289 22.1829 51.1452 21.9373 51.0963C21.4298 50.9986 21.1187 50.6728 21.1024 50.1352C21.1024 49.6139 21.3807 49.2718 21.8882 49.1415C22.1174 49.0763 22.3793 49.0926 22.6249 49.0926C25.6863 49.0926 28.7313 49.0763 31.7927 49.0926C32.5622 49.0926 32.906 48.8157 32.8568 48.05C32.8241 47.5125 32.8405 46.9586 32.8568 46.421C32.8732 45.7694 32.5949 45.4762 31.9237 45.4762C30.745 45.4924 29.5826 45.4273 28.4039 45.4924C26.7995 45.5739 25.2606 45.297 23.8036 44.6453C23.0178 44.287 22.1992 44.1566 21.3479 44.1729C19.0069 44.1892 16.6494 44.1892 14.3084 44.1729C13.6699 44.1729 13.1624 44.3358 12.6712 44.7594C11.1978 46.0789 9.70808 47.3984 8.20193 48.6854C7.80903 49.0112 7.75991 49.2229 8.15282 49.6139C10.412 51.9271 12.6712 54.2567 14.865 56.6188C15.438 57.2378 15.8472 57.303 16.3711 56.6514C17.1897 55.6251 18.2702 55.4133 19.5635 55.4296C23.9837 55.4947 28.4039 55.4459 32.8241 55.4622C33.4462 55.4622 34.0028 55.3644 34.5267 55.006C36.966 53.377 39.4217 51.7642 41.8773 50.1515C42.2866 49.8746 42.6631 49.565 42.876 49.1089C43.5963 47.545 44.3166 45.9323 45.0861 44.2055Z" fill="#FD8C05"/>
<path d="M25.8009 15.6648C24.9005 15.6648 24.0001 15.681 23.116 15.6648C22.2975 15.6485 21.79 15.2412 21.8555 14.6059C21.9209 13.8565 22.4448 13.6285 23.116 13.6285C24.966 13.6285 26.8159 13.6122 28.6658 13.6285C29.4517 13.6285 29.8609 14.0031 29.8609 14.6548C29.8609 15.3064 29.468 15.6485 28.6658 15.6648C27.6999 15.681 26.7504 15.6648 25.8009 15.6648Z" fill="#FD8C05"/>
<path d="M25.8009 11.6573C24.8514 11.6573 23.9018 11.6736 22.9523 11.6573C22.2647 11.641 21.79 11.2011 21.8555 10.631C21.9209 10.0119 22.2975 9.66984 22.9523 9.66984C24.9169 9.66984 26.865 9.65355 28.8296 9.66984C29.468 9.66984 29.8609 10.0119 29.8609 10.6636C29.8609 11.3152 29.4844 11.641 28.8296 11.6573C27.8145 11.6573 26.7995 11.6573 25.8009 11.6573Z" fill="#FD8C05"/>
<path d="M25.8664 17.6358C26.8159 17.6358 27.7655 17.6358 28.715 17.6358C29.3862 17.6358 29.8282 17.8964 29.8282 18.6132C29.8282 19.33 29.4026 19.6069 28.7313 19.6232C26.7996 19.6232 24.8678 19.6395 22.9523 19.6232C22.2648 19.6232 21.7736 19.1671 21.8391 18.5969C21.921 17.9942 22.2648 17.6358 22.936 17.6358C23.9019 17.6521 24.8841 17.6358 25.8664 17.6358Z" fill="#FD8C05"/>
<path d="M7.98911 22.5719C8.12008 22.5882 8.43113 22.5067 8.70944 22.6371C9.13509 22.8488 9.39702 23.1747 9.33154 23.6797C9.24968 24.2335 8.88952 24.5593 8.3329 24.5593C7.62894 24.543 6.79402 24.8363 6.40111 23.9403C6.20466 23.5005 6.33562 23.0769 6.72853 22.7837C7.05595 22.5393 7.44886 22.5556 7.98911 22.5719Z" fill="#FD8C05"/>
<path d="M12.7859 24.5919C12.2947 24.5756 11.7872 24.6244 11.4762 24.1194C11.1979 23.6633 11.2797 23.2235 11.6399 22.8651C12.0328 22.4578 13.5062 22.4252 13.9646 22.8162C14.3902 23.1909 14.4721 23.647 14.1774 24.1357C13.8664 24.657 13.3097 24.5756 12.7859 24.5919Z" fill="#FD8C05"/>
<path d="M12.835 20.5845C12.6222 20.5845 12.393 20.617 12.1801 20.5845C11.6071 20.503 11.3125 20.112 11.3452 19.5745C11.3616 19.0695 11.6563 18.6948 12.1965 18.6459C12.5403 18.6133 12.9005 18.6296 13.2606 18.6296C13.9155 18.6133 14.292 18.9391 14.3575 19.5908C14.4066 20.1772 13.9482 20.5845 13.2606 20.617C13.0969 20.617 12.9659 20.6008 12.835 20.5845C12.835 20.6008 12.835 20.6008 12.835 20.5845Z" fill="#FD8C05"/>
<path d="M12.9004 26.563C13.2442 26.5793 13.6207 26.4979 13.9154 26.7422C14.2756 27.0517 14.4393 27.4264 14.2592 27.8988C14.03 28.5342 13.4898 28.5667 12.9168 28.5667C12.2783 28.5667 11.6235 28.5993 11.3615 27.85C11.2142 27.4101 11.3615 27.0517 11.7053 26.7748C12.0818 26.4653 12.5075 26.5956 12.9004 26.563Z" fill="#FD8C05"/>
<path d="M7.82536 20.6007C7.44882 20.5844 7.05591 20.6659 6.72849 20.4052C6.28647 20.0631 6.20462 19.3952 6.56478 18.9554C6.95769 18.4667 8.61117 18.4504 9.06956 18.9228C9.47884 19.3463 9.42973 19.9817 9.00408 20.3564C8.64391 20.6659 8.21826 20.5844 7.82536 20.6007Z" fill="#FD8C05"/>
<path d="M8.0055 26.563C8.56212 26.5141 9.13511 26.6281 9.31519 27.3612C9.41342 27.801 9.2497 28.2083 8.84043 28.3875C8.13647 28.697 7.39977 28.697 6.72855 28.3386C6.33564 28.1268 6.25379 27.7033 6.38476 27.2634C6.63032 26.4652 7.30154 26.563 8.0055 26.563Z" fill="#FD8C05"/>
<path d="M7.85817 32.4764C7.57986 32.4764 7.30155 32.5253 7.03961 32.4601C6.54848 32.3461 6.31929 31.9714 6.33566 31.499C6.33566 30.9777 6.64671 30.6356 7.17058 30.5379C7.51438 30.4727 7.87454 30.5216 8.23471 30.5216C8.92229 30.5216 9.34794 30.8637 9.34794 31.5316C9.34794 32.2158 8.88955 32.5253 8.20196 32.4927C8.08737 32.4927 7.98914 32.4927 7.87454 32.4927C7.85817 32.4927 7.85817 32.4927 7.85817 32.4764Z" fill="#FD8C05"/>
<path d="M12.7858 32.4764C12.5403 32.4764 12.2947 32.509 12.0491 32.4601C11.6399 32.3787 11.3943 32.0529 11.3288 31.6619C11.247 31.2221 11.4434 30.88 11.8363 30.6519C12.3111 30.375 13.6699 30.4727 14.0137 30.7985C14.3575 31.1243 14.3738 31.5153 14.2429 31.9226C14.0792 32.395 13.7681 32.509 12.7858 32.4764Z" fill="#FD8C05"/>
<path d="M38.8978 24.5919C38.6849 24.5756 38.4557 24.5756 38.2429 24.543C37.6536 24.4616 37.3589 24.0869 37.3752 23.5493C37.3916 23.0117 37.7354 22.637 38.292 22.5719C38.6686 22.523 39.0615 22.523 39.438 22.5719C40.0274 22.637 40.4039 23.0117 40.3875 23.5982C40.3712 24.1846 39.9946 24.5267 39.3725 24.5593C39.2088 24.5756 39.0451 24.5593 38.8814 24.5593C38.8978 24.5756 38.8978 24.5919 38.8978 24.5919Z" fill="#FD8C05"/>
<path d="M38.865 28.5667C38.2429 28.5993 37.6863 28.5505 37.4244 27.8825C37.2443 27.3938 37.4408 27.0192 37.8009 26.7422C38.1938 26.4327 39.7491 26.5142 40.0765 26.84C40.4203 27.1821 40.4858 27.6056 40.273 28.0292C39.9619 28.5993 39.3889 28.583 38.865 28.5667Z" fill="#FD8C05"/>
<path d="M43.8582 24.5919C43.3671 24.5919 42.8596 24.6245 42.5485 24.1357C42.2538 23.647 42.3357 23.1909 42.745 22.8162C43.1379 22.4578 44.5785 22.4415 45.0042 22.7836C45.4298 23.142 45.5117 23.5982 45.2498 24.0869C45.0369 24.4941 44.7259 24.5756 43.8582 24.5919Z" fill="#FD8C05"/>
<path d="M38.8814 18.6296C39.0943 18.6296 39.3235 18.597 39.5363 18.6296C40.2566 18.7273 40.6168 19.4604 40.273 20.0794C39.9783 20.6333 39.438 20.6007 38.9305 20.5844C38.3903 20.5844 37.8337 20.6659 37.5063 20.0631C37.1788 19.4767 37.5063 18.7436 38.1611 18.6133C38.3903 18.597 38.6359 18.6459 38.8814 18.6296Z" fill="#FD8C05"/>
<path d="M38.8978 32.509C38.3739 32.4928 37.8992 32.5905 37.5718 32.1344C37.2443 31.6619 37.2935 31.2221 37.67 30.8148C38.0629 30.4076 39.6345 30.375 40.0438 30.766C40.4531 31.1732 40.5349 31.6457 40.1748 32.1344C39.8146 32.6068 39.3071 32.4928 38.8978 32.509Z" fill="#FD8C05"/>
<path d="M43.9074 18.6133C45.0042 18.6133 45.479 18.9554 45.3644 19.7374C45.217 20.7474 44.4149 20.5682 43.7273 20.6008C43.0724 20.6171 42.5158 20.4867 42.4176 19.7211C42.303 18.988 42.8269 18.6133 43.9074 18.6133Z" fill="#FD8C05"/>
<path d="M43.8746 32.509C43.4817 32.4927 43.0397 32.6067 42.7123 32.2646C42.303 31.8411 42.2375 31.3524 42.614 30.8799C43.0233 30.3749 44.6604 30.3424 45.1025 30.8311C45.4954 31.2709 45.479 31.7759 45.0861 32.2158C44.775 32.6067 44.3003 32.4764 43.8746 32.509Z" fill="#FD8C05"/>
<path d="M43.9892 26.563C44.4476 26.5467 45.0042 26.5141 45.2661 27.0842C45.479 27.5404 45.4135 27.9802 45.0206 28.3386C44.6277 28.6807 43.1543 28.697 42.7614 28.3549C42.3685 28.0128 42.2702 27.573 42.4994 27.1005C42.7941 26.4978 43.3835 26.563 43.9892 26.563Z" fill="#FD8C05"/>
</svg>
