<svg width="53" height="57" viewBox="0 0 51 57" fill="none" xmlns="http://www.w3.org/2000/svg">
<path d="M1.7695 42.7579C-0.535991 45.015 -0.591778 48.1232 1.62075 50.4543C2.84787 51.7309 4.33528 52.6189 5.93425 53.322C10.2292 55.2276 14.7844 56.0046 19.4325 56.4301L19.4553 56.1812C19.4551 56.1812 19.4549 56.1811 19.4547 56.1811M1.7695 42.7579L19.4547 56.1811M1.7695 42.7579C3.25692 41.2963 5.07899 40.3528 7.01263 39.6127L1.7695 42.7579ZM19.4547 56.1811C19.8783 56.2178 20.3064 56.2544 20.7348 56.2911L20.7461 56.292C21.1747 56.3287 21.6035 56.3654 22.0277 56.4021C23.9669 56.4021 25.9257 56.4022 27.9031 56.4204C27.9182 56.417 27.9334 56.4136 27.9487 56.4101C28.0857 56.3792 28.229 56.3469 28.3853 56.3297L28.3927 56.3288L28.3927 56.3289C28.7515 56.3 29.1107 56.2724 29.4701 56.2447C30.4933 56.166 31.5171 56.0873 32.5321 55.9781C36.329 55.5541 40.0217 54.7996 43.5244 53.3322C45.3513 52.5609 47.0604 51.6162 48.4007 50.1384L48.4017 50.1372C50.0936 48.2942 50.3 45.9612 48.9368 43.9529L48.9359 43.9516C48.0399 42.6142 46.7435 41.7128 45.307 40.9432L45.3064 40.9428C42.495 39.4252 39.4382 38.6354 36.3014 37.989L36.2971 37.9881L36.2971 37.9881C35.8677 37.8916 35.44 37.8162 34.9898 37.7369C34.8429 37.711 34.6936 37.6847 34.5411 37.6571L34.1967 37.5948L34.3673 37.2892C34.4622 37.1192 34.5196 37.024 34.576 36.9305L34.5796 36.9246L34.5797 36.9246C35.1225 36.0782 35.6623 35.2312 36.2021 34.3843C37.4538 32.4204 38.7049 30.4573 39.9917 28.5042C43.0941 23.7914 43.8822 18.7223 42.3951 13.2964C40.5811 6.67803 34.5463 1.40182 27.6721 0.453304L27.6718 0.453261C22.2915 -0.295905 17.4929 1.01797 13.4038 4.52122L13.4036 4.52143C8.59467 8.63085 6.46931 13.9166 7.03852 20.2383L7.0386 20.2392C7.27664 22.9905 8.17359 25.524 9.64091 27.8419L9.64094 27.8419C10.9046 29.839 12.1842 31.8188 13.4646 33.7997C14.1041 34.7892 14.7438 35.779 15.3818 36.7713C15.4366 36.8484 15.4836 36.9325 15.5268 37.0116C15.535 37.0267 15.5432 37.0418 15.5513 37.0567C15.5885 37.1252 15.625 37.1925 15.6678 37.2635L15.8388 37.5472L15.5192 37.6339C15.5038 37.6381 15.4887 37.6422 15.4738 37.6462C15.2995 37.6937 15.1611 37.7314 15.006 37.7511C12.3063 38.193 9.64803 38.8549 7.10334 39.8457L7.10199 39.8462C5.18404 40.5803 3.39759 41.5086 1.94472 42.9362L1.94439 42.9366C0.832914 44.0247 0.275008 45.3055 0.250823 46.5831C0.226643 47.8604 0.735511 49.1582 1.80146 50.2816C2.9983 51.5265 4.45414 52.3981 6.03488 53.0931L6.03565 53.0934C10.294 54.9828 14.8177 55.7566 19.4547 56.1811ZM24.9992 46.5168L24.7963 46.1802C24.7307 46.0715 24.6688 45.9786 24.6078 45.8871C24.5943 45.8668 24.5807 45.8465 24.5672 45.8261C24.4968 45.7199 24.427 45.6114 24.3655 45.491C22.7731 43.0133 21.1807 40.5329 19.5874 38.0509C17.0899 34.1607 14.5899 30.2664 12.0828 26.3719C12.0828 26.3719 12.0828 26.3719 12.0827 26.3719L12.293 26.2365L24.9992 46.5168ZM24.9992 46.5168L25.218 46.1902M24.9992 46.5168L25.218 46.1902M25.218 46.1902C25.4054 45.9106 25.5367 45.7053 25.6668 45.5018C27.1372 43.2152 28.6048 40.9241 30.0724 38.6329C32.5958 34.6934 35.1196 30.7535 37.6586 26.835L37.6588 26.8347M25.218 46.1902L37.6588 26.8347M37.6588 26.8347C41.5667 20.7859 41.097 13.3893 36.2201 8.06619L36.2201 8.06612M37.6588 26.8347L36.2201 8.06612M36.2201 8.06612C32.4799 3.98728 27.746 2.42455 22.2914 3.34481L36.2201 8.06612ZM14.7033 40.6802C11.9969 41.1631 9.33229 41.834 6.81235 43.0316L6.80982 43.0329C5.70611 43.5727 4.60942 44.2007 3.75755 45.1639L3.75595 45.1658C3.32545 45.6623 3.07706 46.1666 3.07431 46.6927C3.07154 47.2213 3.31689 47.7189 3.76112 48.2002L3.76109 48.2003L3.76401 48.2033C4.12579 48.5823 4.52756 48.9443 4.95102 49.2508L4.951 49.2508L4.9544 49.2532C6.73698 50.4986 8.7589 51.2107 10.7931 51.7864C15.4514 53.1081 20.1789 53.516 24.9449 53.7013L24.96 53.7019L14.7472 40.9263M14.7033 40.6802L14.7472 40.9263M14.7033 40.6802C14.7033 40.6802 14.7032 40.6802 14.7032 40.6802L14.7472 40.9263M14.7033 40.6802C15.0206 40.6235 15.3415 40.5773 15.6579 40.5318C15.7082 40.5245 15.7583 40.5173 15.8083 40.5101C16.1744 40.457 16.5345 40.4025 16.8886 40.3304M14.7472 40.9263C15.06 40.8704 15.3763 40.8249 15.693 40.7793C16.1105 40.7192 16.5288 40.6589 16.9411 40.5748M16.8886 40.3304C16.8877 40.3306 16.8868 40.3307 16.886 40.3309L16.9411 40.5748M16.8886 40.3304C16.8894 40.3302 16.8903 40.33 16.8911 40.3298L16.9411 40.5748M16.8886 40.3304C17.1288 40.2764 17.3422 40.2851 17.5339 40.3859C17.7163 40.4818 17.8428 40.6434 17.9502 40.8085L17.9521 40.8115C19.3133 42.9706 20.6937 45.1196 22.0732 47.2669C22.5961 48.081 23.1189 48.8948 23.6405 49.7089L23.6412 49.71C23.8933 50.1079 24.1804 50.3725 24.4717 50.5039C24.756 50.6322 25.0588 50.6409 25.3751 50.5027L25.3844 50.4987L25.3845 50.4989C25.7495 50.3567 26.1217 50.011 26.3637 49.6503C28.2774 46.7291 30.1543 43.789 32.013 40.8482L32.0165 40.8426L32.0166 40.8427C32.1345 40.6667 32.2653 40.508 32.4498 40.4112C32.6399 40.3115 32.8511 40.2954 33.0932 40.3269L33.0965 40.3273C36.8374 40.8644 40.5758 41.5905 43.9645 43.4635C44.8059 43.9203 45.5874 44.5276 46.2536 45.2092C46.7051 45.659 46.9407 46.1505 46.9324 46.6725C46.9242 47.1894 46.6773 47.6882 46.264 48.1583C45.144 49.4455 43.6445 50.1481 42.1744 50.7592L42.1742 50.7593C39.2483 51.9723 36.1754 52.6803 33.0509 53.0155C33.0507 53.0155 33.0506 53.0155 33.0504 53.0155L33.0238 52.7669L16.9411 40.5748" fill="#FD8C05" stroke="#E8E8E8" stroke-width="0.5"/>
<path d="M25.0465 10.3167H25.0475C29.5189 10.3167 33.1079 13.9402 33.0899 18.4282C33.0719 22.8386 29.4496 26.4121 24.9546 26.4121C20.4832 26.4121 16.8942 22.7886 16.9122 18.3007C16.9303 13.8715 20.5711 10.2988 25.0465 10.3167ZM30.2616 18.3651L30.262 18.3544L30.2615 18.3438C30.1257 15.3706 27.9608 13.1654 25.0104 13.1654C22.0077 13.1654 19.7961 15.4247 19.7961 18.3737C19.7961 21.3645 22.0684 23.5634 25.0289 23.5634L25.0306 23.5634C28.038 23.544 30.1452 21.2998 30.2616 18.3651Z" fill="#FD8C05" stroke="#E8E8E8" stroke-width="0.5"/>
</svg>
