<svg width="53" height="auto" viewBox="0 0 67 63" fill="none" xmlns="http://www.w3.org/2000/svg">
<g clip-path="url(#clip0_53_156)">
<path d="M39.8108 49.7694C39.8108 47.3485 39.922 45.3217 39.7552 43.2949C39.5884 40.9303 40.4224 39.8042 42.9245 40.0857C43.9253 40.1983 44.9261 40.0857 46.3718 40.0857C46.3718 37.6085 46.483 35.1876 46.3162 32.823C46.205 30.9651 46.9834 30.3458 48.7627 30.4021C51.1535 30.4584 53.6 30.4584 55.9909 30.4021C57.6589 30.3458 58.3817 31.0214 58.3261 32.7104C58.2705 35.0187 58.3261 37.327 58.3261 39.8605C61.3286 39.6353 61.7178 41.4369 61.4954 43.7453C61.3842 44.6461 61.551 45.6032 61.4954 46.5603C61.3842 48.5308 61.4954 49.9383 63.9419 50.6702C66.444 51.4021 67.4448 54.6675 66.8332 58.1018C66.3328 60.8042 64.7203 62.3806 62.0515 62.8874C61.2174 63.0563 60.3834 63 59.5494 63C42.1461 63 24.6871 63 7.28382 63C1.55685 63 -1.16763 59.7345 0.389216 54.1608C0.834029 52.5844 2.66888 51.2332 4.17013 50.2761C5.11536 49.6568 6.6722 49.8257 7.95104 49.8257C17.4033 49.7694 26.8556 49.8257 36.3079 49.8257C37.3643 49.7694 38.3651 49.7694 39.8108 49.7694ZM33.5834 52.1903C24.6871 52.1903 15.8465 52.1903 6.95021 52.1903C3.39171 52.1903 2.44648 53.0911 2.44648 56.2439C2.44648 59.5656 3.50291 60.6916 7.00581 60.6916C24.6871 60.6916 42.3685 60.6916 59.9942 60.6916C63.4971 60.6916 64.7759 59.5093 64.7759 56.3565C64.7759 53.26 63.6083 52.1903 59.9942 52.1903C51.1535 52.1903 42.3685 52.1903 33.5834 52.1903ZM48.8183 32.8793C48.8183 35.1876 48.8183 37.5522 48.8183 39.9731C51.1535 39.9731 53.4332 39.9731 55.8241 39.9731C55.8241 37.5522 55.8241 35.3002 55.8241 32.8793C53.4332 32.8793 51.2647 32.8793 48.8183 32.8793ZM49.4299 49.6568C49.4299 47.0107 49.4299 44.7587 49.4299 42.563C46.9834 42.563 44.7037 42.563 42.3685 42.563C42.3685 44.9839 42.3685 47.2359 42.3685 49.6568C44.8149 49.6568 47.0946 49.6568 49.4299 49.6568ZM52.0432 42.4504C52.0432 44.9276 52.0432 47.2359 52.0432 49.6005C54.434 49.6005 56.7137 49.6005 59.049 49.6005C59.049 47.1233 59.049 44.8713 59.049 42.4504C56.7137 42.4504 54.4896 42.4504 52.0432 42.4504Z" fill="#FD8C05"/>
<path d="M8.56266 30.6273C7.72863 28.9946 7.72863 27.0804 5.11536 27.193C0.166809 27.3619 0.166809 27.1367 0.166809 22.126C0.166809 18.4102 0.166809 18.4102 3.83652 18.4102C4.55934 18.4102 5.44897 18.6354 6.00498 18.3539C6.78341 17.9598 7.56183 17.2279 7.89544 16.4397C8.17345 15.764 8.00664 14.6943 7.67303 14.075C7.17262 13.2305 6.28299 12.6112 5.56017 11.8793C5.17096 11.4852 4.50374 11.0911 4.50374 10.6407C4.17013 7.71311 7.11702 6.98121 8.50706 5.1796C8.84067 4.7292 10.4531 4.8418 11.2315 5.2359C12.1212 5.63 12.6216 6.81231 13.4556 7.26271C14.3452 7.76941 15.5129 8.05091 16.5137 7.93831C18.0149 7.82571 18.5154 6.75601 18.5154 5.1796C18.4598 -2.69022e-05 17.4033 0.112573 23.7975 -2.7084e-05C26.2996 -0.0563274 27.4672 0.731876 27.1336 3.32169C27.0224 4.05359 26.9112 4.8981 27.1892 5.5174C27.5784 6.4182 28.19 7.48791 28.9685 7.82571C29.7469 8.16351 30.9701 7.93831 31.8042 7.54421C32.6938 7.09381 33.3054 6.193 33.9726 5.4048C35.1403 4.05359 36.2523 3.94099 37.4199 5.3485C37.5311 5.5174 37.6979 5.63 37.8091 5.7426C41.8125 9.68362 41.7569 9.62732 38.1427 13.7372C37.5867 14.3565 37.3087 15.8203 37.6979 16.496C38.0871 17.3405 39.3104 18.2976 40.2 18.2976C46.1494 18.3539 45.2598 17.9598 45.4822 23.8713C45.5934 26.63 44.6481 27.4745 41.9793 27.2493C40.7004 27.1367 38.9768 27.2493 38.2539 28.0375C37.0863 29.2761 36.4191 31.0777 38.532 32.4852C39.1992 32.9356 39.7552 33.6675 40.3112 34.2305C40.5892 34.512 40.9784 34.7372 41.034 35.075C41.5344 38.1153 38.4764 38.7346 37.1419 40.5362C36.8083 40.9866 35.2515 40.9303 34.473 40.5925C33.5834 40.1984 32.9162 39.2976 32.3046 38.5094C31.3593 37.3271 30.4141 37.1581 28.9129 37.7212C27.4116 38.3405 27.1336 39.2413 27.1336 40.7051C27.1892 46.3351 27.4672 45.5469 22.1851 45.6032C18.5154 45.6032 18.571 45.6032 18.4598 41.6622C18.4598 40.311 19.127 38.6783 17.1253 37.8901C15.5685 37.2708 14.3452 37.1018 13.2888 38.5657C12.7884 39.2413 12.0656 39.748 11.5652 40.3673C10.3419 41.8311 9.22988 41.6622 8.17345 40.2547C8.06224 40.0858 7.89544 39.9732 7.78424 39.8606C3.89212 36.0321 3.89212 36.0321 7.61743 31.9222C7.89544 31.5281 8.22905 31.0214 8.56266 30.6273ZM10.0639 7.37531C9.00747 8.27611 8.00664 9.06432 7.11702 9.79622C8.45146 12.3297 11.9544 13.1179 10.2307 17.5094C8.45146 22.0697 5.17096 20.0429 2.61328 21C2.61328 22.2949 2.61328 23.5898 2.61328 25.1662C6.83901 24.0402 9.56349 25.2788 10.7867 29.6139C11.7876 33.2171 7.83984 33.4423 7.17262 35.9758C7.89544 36.764 8.72947 37.7212 9.56349 38.622C12.288 37.1581 13.122 33.5549 17.5701 35.4128C21.9627 37.2708 20.1278 40.4799 20.9062 43.1823C22.1295 43.1823 23.2971 43.1823 24.5203 43.1823C25.2988 40.4236 23.5195 37.2145 27.912 35.3565C32.3602 33.4986 33.2498 37.1581 35.9187 38.5657C36.7527 37.6649 37.6423 36.7078 38.4764 35.8632C37.0307 33.3297 33.4722 32.4852 35.3071 27.9249C37.1419 23.3646 40.478 25.7292 42.9245 24.6032C42.9245 23.3083 42.9245 22.126 42.9245 20.8311C40.1444 20.1555 37.0307 21.7882 35.1959 17.3968C33.3054 12.8364 37.4755 12.2171 38.3095 9.73992C37.4199 8.72651 36.6415 7.76941 35.9187 6.86861C33.2498 8.33241 32.4158 11.8793 27.912 10.0777C23.4083 8.44501 25.5768 5.1233 24.5203 2.70239C23.2415 2.70239 22.0739 2.70239 20.517 2.70239C21.7959 7.15011 20.239 9.68362 15.9577 10.8096C12.5104 11.7104 12.1768 8.05091 10.0639 7.37531Z" fill="#FD8C05"/>
<path d="M22.7411 11.0349C29.3021 11.0349 34.6398 16.2708 34.6398 22.8016C34.6954 29.3324 29.0797 34.9625 22.6299 34.8499C16.1801 34.7373 10.7867 29.2761 10.8423 22.8579C10.8979 16.3271 16.1801 11.0349 22.7411 11.0349ZM22.4075 32.429C27.8564 32.5979 32.3046 28.4316 32.4158 23.0268C32.527 18.0161 28.3012 13.4558 23.2971 13.2306C17.8481 13.0054 13.2332 17.3405 13.122 22.8016C13.0664 27.9249 17.2365 32.2601 22.4075 32.429Z" fill="#FD8C05"/>
<path d="M31.3593 22.7453C31.4149 27.5871 27.5784 31.5281 22.9079 31.6407C18.2373 31.7533 14.234 27.756 14.1784 23.0268C14.1228 18.1286 17.7925 14.3002 22.6299 14.2439C27.4672 14.1876 31.3037 17.9034 31.3593 22.7453ZM22.7967 16.6085C19.3494 16.6085 16.3469 19.5361 16.3469 22.9705C16.3469 26.3485 19.4606 29.3324 22.7967 29.2761C26.0772 29.2198 28.9685 26.3485 29.0797 23.0268C29.2465 19.5924 26.244 16.6085 22.7967 16.6085Z" fill="#FD8C05"/>
<path d="M11.9544 59.2279C13.5205 59.2279 14.7901 57.9423 14.7901 56.3565C14.7901 54.7708 13.5205 53.4852 11.9544 53.4852C10.3883 53.4852 9.11868 54.7708 9.11868 56.3565C9.11868 57.9423 10.3883 59.2279 11.9544 59.2279Z" fill="#FD8C05"/>
<path d="M22.8523 59.2279C24.4184 59.2279 25.688 57.9423 25.688 56.3565C25.688 54.7708 24.4184 53.4852 22.8523 53.4852C21.2862 53.4852 20.0166 54.7708 20.0166 56.3565C20.0166 57.9423 21.2862 59.2279 22.8523 59.2279Z" fill="#FD8C05"/>
<path d="M33.7502 59.2279C35.3163 59.2279 36.5859 57.9423 36.5859 56.3565C36.5859 54.7708 35.3163 53.4852 33.7502 53.4852C32.1841 53.4852 30.9145 54.7708 30.9145 56.3565C30.9145 57.9423 32.1841 59.2279 33.7502 59.2279Z" fill="#FD8C05"/>
<path d="M44.6481 59.2279C46.2142 59.2279 47.4838 57.9423 47.4838 56.3565C47.4838 54.7708 46.2142 53.4852 44.6481 53.4852C43.082 53.4852 41.8124 54.7708 41.8124 56.3565C41.8124 57.9423 43.082 59.2279 44.6481 59.2279Z" fill="#FD8C05"/>
<path d="M55.5461 59.2279C57.1122 59.2279 58.3818 57.9423 58.3818 56.3565C58.3818 54.7708 57.1122 53.4852 55.5461 53.4852C53.98 53.4852 52.7104 54.7708 52.7104 56.3565C52.7104 57.9423 53.98 59.2279 55.5461 59.2279Z" fill="#FD8C05"/>
</g>
<defs>
<clipPath id="clip0_53_156">
<rect width="67" height="63" fill="white"/>
</clipPath>
</defs>
</svg>
